<svg width="101" height="101" viewBox="0 0 101 101" fill="none" xmlns="http://www.w3.org/2000/svg">
  <path d="M10.5208 24.6667V16.8333C10.5208 14.5091 12.4049 12.625 14.7291 12.625H39.9791L50.5 25.25H86.2708C88.5951 25.25 90.4791 27.1341 90.4791 29.4583V84.1667C90.4791 86.4909 88.5951 88.375 86.2708 88.375H14.7291C12.4049 88.375 10.5208 86.4909 10.5208 84.1667V78.5" stroke="#818181" stroke-width="5" stroke-linecap="round" stroke-linejoin="round"/>
  <path d="M3 62.5V47.5H25.5V32.4142C25.5 31.5233 26.5771 31.0771 27.2071 31.7071L50.2929 54.7929C50.6834 55.1834 50.6834 55.8166 50.2929 56.2071L27.2071 79.2929C26.5771 79.9229 25.5 79.4767 25.5 78.5858V62.5H3Z" fill="#F1BA10" stroke="#3D3D3D" stroke-width="2"/>
</svg>
