<svg width="101" height="101" viewBox="0 0 101 101" fill="none" xmlns="http://www.w3.org/2000/svg">
  <path d="M90.4791 32V29.4583C90.4791 27.1341 88.5951 25.25 86.2708 25.25H50.5L39.9791 12.625H14.7291C12.4049 12.625 10.5208 14.5091 10.5208 16.8333V84.1667C10.5208 86.4909 12.4049 88.375 14.7291 88.375H86.2708C88.5951 88.375 90.4791 86.4909 90.4791 84.1667V79.5" stroke="#818181" stroke-width="5" stroke-linecap="round" stroke-linejoin="round"/>
  <path d="M51 62.5V47.5H73.5V32.4142C73.5 31.5233 74.5771 31.0771 75.2071 31.7071L98.2929 54.7929C98.6834 55.1834 98.6834 55.8166 98.2929 56.2071L75.2071 79.2929C74.5771 79.9229 73.5 79.4767 73.5 78.5858V62.5H51Z" fill="#0068D4" stroke="#3D3D3D" stroke-width="2"/>
</svg>
